<svg width="200" height="200" viewBox="0 0 200 200" xmlns="http://www.w3.org/2000/svg">
  <!-- Simplified white mark for dark footers -->
  <g transform="translate(30, 40)">
    <!-- Book spine outline -->
    <path d="M0 15 L0 105 Q0 115 10 115 L15 115 L15 15 Q15 5 10 5 Q0 5 0 15 Z"
          fill="none" stroke="#FFFFFF" stroke-width="3" stroke-linejoin="round"/>

    <!-- Left page outline -->
    <path d="M15 15 Q15 5 25 5 L60 5 Q70 5 70 15 L70 105 Q70 115 60 115 L25 115 Q15 115 15 105 Z"
          fill="none" stroke="#FFFFFF" stroke-width="3" stroke-linejoin="round"/>

    <!-- Right page outline -->
    <path d="M70 15 Q70 5 80 5 L115 5 Q125 5 125 15 L125 105 Q125 115 115 115 L80 115 Q70 115 70 105 Z"
          fill="none" stroke="#FFFFFF" stroke-width="3" stroke-linejoin="round"/>

    <!-- Binding line -->
    <line x1="70" y1="15" x2="70" y2="105" stroke="#FFFFFF" stroke-width="3"/>

    <!-- Neural network icon on the right page -->
    <g transform="translate(80, 35)">
      <!-- Hub -->
      <circle cx="12" cy="20" r="5" fill="#FFFFFF"/>

      <!-- Nodes -->
      <circle cx="3" cy="12" r="2.5" fill="#FFFFFF"/>
      <circle cx="21" cy="12" r="2.5" fill="#FFFFFF"/>
      <circle cx="3" cy="28" r="2.5" fill="#FFFFFF"/>
      <circle cx="21" cy="28" r="2.5" fill="#FFFFFF"/>
      <circle cx="12" cy="8" r="2.5" fill="#FFFFFF"/>
      <circle cx="12" cy="32" r="2.5" fill="#FFFFFF"/>

      <!-- Connections -->
      <line x1="5.5" y1="14" x2="9.5" y2="18" stroke="#FFFFFF" stroke-width="2"/>
      <line x1="18.5" y1="14" x2="14.5" y2="18" stroke="#FFFFFF" stroke-width="2"/>
      <line x1="5.5" y1="26" x2="9.5" y2="22" stroke="#FFFFFF" stroke-width="2"/>
      <line x1="18.5" y1="26" x2="14.5" y2="22" stroke="#FFFFFF" stroke-width="2"/>
      <line x1="12" y1="10.5" x2="12" y2="17" stroke="#FFFFFF" stroke-width="2"/>
      <line x1="12" y1="23" x2="12" y2="29.5" stroke="#FFFFFF" stroke-width="2"/>
    </g>

    <!-- Stylus/Pen -->
    <g transform="translate(130, 25) rotate(20)">
      <rect x="0" y="0" width="5" height="35" rx="2.5" fill="none" stroke="#FFFFFF" stroke-width="3"/>
      <polygon points="2.5,35 1,38 4,38" fill="#FFFFFF"/>
      <rect x="1" y="4" width="3" height="6" rx="1.5" fill="#FFFFFF"/>
    </g>
  </g>
</svg>